# xmcd CD database file
#
# Track frame offsets:
#	150
#	12987
#	31479
#	47121
#	63314
#	84174
#	102474
#	118425
#	132893
#	144905
#	163651
#	182675
#	200067
#	214866
#	230756
#	246538
#	260858
#	285015
#	305980
#	322139
#	337450
#
# Disc length: 4709 seconds
#
# Revision: 0
# Processed by: cddbd v1.5.2PL0 Copyright (c) Steve Scherf et al.
# Submitted via: CDex 1.51
#
DISCID=52126315
DTITLE=John Williamson -  A hell of a Career CD 1
DYEAR=1900
DGENRE=Country
TTITLE0=Old man Emu
TTITLE1=True Blue 
TTITLE2=Hawkesburry River lovin 
TTITLE3=Diggers of the Anzac
TTITLE4=Wrinkles 
TTITLE5=Queen in the sport of Kings 
TTITLE6=Chains 
TTITLE7=Mallee Boy
TTITLE8=The Budgie Song 
TTITLE9=Pink Galahs 
TTITLE10=Raining on the Rock 
TTITLE11=Coota Wattle 
TTITLE12=Sail the Nullabor 
TTITLE13=Westown 
TTITLE14=Boomerang Cafe 
TTITLE15=Amazing Day 
TTITLE16=Boogie with m Baby 
TTITLE17=Aincent Mountains 
TTITLE18=Bill the cat
TTITLE19=Dingo 
TTITLE20=Goodbye Blinky Bill
EXTD=
EXTT0=
EXTT1=
EXTT2=
EXTT3=
EXTT4=
EXTT5=
EXTT6=
EXTT7=
EXTT8=
EXTT9=
EXTT10=
EXTT11=
EXTT12=
EXTT13=
EXTT14=
EXTT15=
EXTT16=
EXTT17=
EXTT18=
EXTT19=
EXTT20=
PLAYORDER=
